<?xml version="1.0" standalone="no"?>
<!DOCTYPE svg PUBLIC "-//W3C//DTD SVG 20010904//EN"
 "http://www.w3.org/TR/2001/REC-SVG-20010904/DTD/svg10.dtd">
<svg version="1.0" xmlns="http://www.w3.org/2000/svg"
 width="1096.000000pt" height="901.000000pt" viewBox="0 0 1096.000000 901.000000"
 preserveAspectRatio="xMidYMid meet">

<g transform="translate(0.000000,901.000000) scale(0.100000,-0.100000)"
fill="#000000" stroke="none">
<path d="M2650 8978 c-797 -28 -1501 -283 -1951 -705 -290 -273 -485 -602
-584 -988 -47 -182 -65 -312 -72 -515 -41 -1209 703 -2669 2015 -3951 661
-646 1414 -1208 2227 -1662 1116 -622 2263 -1002 3350 -1109 170 -17 750 -17
915 0 1049 106 1797 541 2160 1257 160 315 232 643 232 1050 -1 302 -34 535
-122 861 -90 331 -193 597 -361 934 -262 524 -606 1028 -1050 1535 -153 175
-545 571 -754 763 -924 846 -2082 1567 -3222 2005 -1000 385 -1911 557 -2783
525z m641 -138 c412 -32 744 -86 1160 -190 1896 -474 3839 -1735 5096 -3307
533 -667 903 -1352 1097 -2035 94 -329 124 -511 133 -808 12 -404 -51 -731
-202 -1047 -278 -581 -790 -972 -1526 -1167 -314 -83 -622 -119 -1009 -118
-513 1 -927 55 -1489 193 -612 151 -1188 365 -1791 665 -1012 504 -1927 1162
-2694 1938 -1069 1081 -1712 2234 -1842 3301 -25 210 -23 521 4 701 73 471
268 857 593 1168 425 408 1020 643 1784 705 148 12 532 12 686 1z"/>
<path d="M5470 7838 c0 -203 -18 -734 -30 -923 -64 -970 -233 -1503 -584
-1843 -323 -313 -787 -456 -1656 -512 -160 -10 -841 -29 -1067 -30 l-113 0 0
-25 0 -25 324 0 c543 0 1129 -33 1426 -81 216 -35 441 -90 586 -145 101 -38
272 -127 354 -185 160 -113 323 -307 422 -503 206 -409 308 -1040 323 -2001 3
-176 8 -366 11 -422 6 -97 7 -103 27 -103 l22 0 2 313 c13 1732 258 2477 930
2820 258 132 571 210 1025 257 275 28 784 50 1166 50 l322 0 0 25 0 25 -112 0
c-224 1 -907 20 -1068 30 -616 39 -1015 122 -1319 275 -519 261 -778 754 -881
1675 -38 343 -60 788 -60 1218 l0 252 -25 0 -25 0 0 -142z"/>
</g>
</svg>
