<?xml version="1.0" standalone="no"?>
<!DOCTYPE svg PUBLIC "-//W3C//DTD SVG 20010904//EN"
 "http://www.w3.org/TR/2001/REC-SVG-20010904/DTD/svg10.dtd">
<svg version="1.0" xmlns="http://www.w3.org/2000/svg"
 width="512.000000pt" height="512.000000pt" viewBox="0 0 512.000000 512.000000"
 preserveAspectRatio="xMidYMid meet">

<g transform="translate(0.000000,512.000000) scale(0.100000,-0.100000)"
fill="#000000" stroke="none">
<path d="M1210 4019 c-56 -25 -77 -44 -101 -91 -26 -51 -33 -106 -19 -158 10
-41 65 -99 593 -628 l582 -582 -582 -583 c-404 -404 -587 -593 -598 -619 -73
-177 117 -350 291 -263 71 35 1344 1310 1373 1375 26 56 26 123 2 175 -13 27
-232 253 -687 707 -575 572 -675 668 -709 677 -58 16 -94 13 -145 -10z"/>
<path d="M2490 4019 c-56 -25 -77 -44 -101 -91 -26 -51 -33 -106 -19 -158 10
-41 65 -99 593 -628 l582 -582 -582 -583 c-404 -404 -587 -593 -598 -619 -73
-177 117 -350 291 -263 71 35 1344 1310 1373 1375 26 56 26 123 2 175 -13 27
-232 253 -687 707 -575 572 -675 668 -709 677 -58 16 -94 13 -145 -10z"/>
</g>
</svg>
