<?xml version="1.0" standalone="no"?>
<!DOCTYPE svg PUBLIC "-//W3C//DTD SVG 20010904//EN"
 "http://www.w3.org/TR/2001/REC-SVG-20010904/DTD/svg10.dtd">
<svg version="1.0" xmlns="http://www.w3.org/2000/svg"
 width="465.000000pt" height="493.000000pt" viewBox="0 0 465.000000 493.000000"
 preserveAspectRatio="xMidYMid meet">

<g transform="translate(0.000000,493.000000) scale(0.100000,-0.100000)"
fill="#000000" stroke="none">
<path d="M26 4878 c-14 -20 -16 -254 -16 -2291 l0 -2268 25 -24 c24 -24 28
-25 185 -25 l160 0 0 -113 c0 -122 5 -137 51 -137 47 0 59 30 59 147 l0 103
255 0 255 0 0 -103 c0 -117 12 -147 59 -147 46 0 51 15 51 137 l0 113 265 0
265 0 0 -114 c0 -125 6 -140 57 -134 41 5 53 38 53 151 l0 97 260 0 260 0 0
-108 c0 -121 9 -145 55 -144 46 0 55 23 55 144 l0 108 265 0 265 0 0 -113 c0
-122 6 -137 50 -137 44 0 50 15 50 137 l0 113 265 0 265 0 0 -114 c0 -116 3
-125 43 -139 12 -5 26 2 43 18 22 22 24 31 24 130 l0 105 260 0 260 0 0 -109
c0 -128 11 -149 70 -141 32 3 40 32 40 142 l0 108 158 0 c178 0 202 7 202 61
0 16 -6 32 -12 34 -7 3 -1023 6 -2258 8 l-2245 2 -3 128 -3 127 108 0 c119 0
153 12 153 54 0 46 -27 56 -148 56 l-112 0 0 274 0 273 204 117 204 117 -25
45 c-17 30 -30 43 -40 40 -8 -3 -84 -46 -169 -96 -86 -49 -160 -90 -165 -90
-5 0 -9 102 -9 240 l0 240 114 0 c127 0 150 9 144 59 -5 39 -39 51 -155 51
l-103 0 0 260 0 260 113 0 c98 0 116 3 130 18 22 24 21 55 -1 75 -15 14 -40
17 -130 17 l-112 0 2 263 3 262 114 3 c64 1 121 8 128 14 18 14 16 53 -3 72
-12 13 -39 16 -130 16 l-114 0 0 265 0 265 114 0 c124 0 146 8 146 55 0 43
-33 55 -152 55 l-108 0 0 260 0 260 108 0 c118 0 152 12 152 54 0 46 -27 56
-148 56 l-112 0 0 168 c0 117 -4 172 -12 180 -20 20 -65 14 -82 -10z"/>
<path d="M1203 4209 c-17 -5 -45 -23 -62 -40 -141 -141 63 -360 214 -228 86
76 66 212 -39 260 -45 20 -65 22 -113 8z"/>
<path d="M1965 3949 c-103 -60 -121 -178 -39 -256 82 -77 208 -46 249 62 24
60 13 107 -34 158 -35 37 -43 41 -97 44 -33 2 -68 -2 -79 -8z"/>
<path d="M2942 3934 c-117 -60 -112 -234 8 -284 40 -17 120 -8 153 16 41 29
71 97 64 146 -14 104 -133 169 -225 122z"/>
<path d="M3310 3258 c-448 -259 -816 -472 -818 -473 -2 -2 7 -23 20 -47 13
-23 24 -44 25 -46 3 -7 1638 941 1651 956 26 34 2 82 -41 82 -12 -1 -389 -213
-837 -472z"/>
<path d="M883 3509 c-74 -22 -124 -112 -103 -188 14 -54 43 -87 95 -106 78
-30 162 3 195 78 25 54 25 81 -1 133 -33 69 -114 105 -186 83z"/>
<path d="M2290 3441 c-72 -38 -100 -138 -59 -210 30 -53 65 -74 129 -79 45 -3
61 0 89 20 98 66 99 200 1 265 -41 29 -111 30 -160 4z"/>
<path d="M1580 3201 c-105 -55 -109 -209 -8 -271 72 -44 171 -17 215 57 78
133 -71 287 -207 214z"/>
<path d="M3839 3186 c-133 -90 -57 -299 103 -284 197 19 182 308 -16 308 -38
0 -61 -6 -87 -24z"/>
<path d="M3325 2797 c-38 -18 -60 -43 -80 -91 -47 -111 66 -238 183 -207 52
15 79 36 103 83 51 100 -15 216 -128 225 -28 2 -61 -3 -78 -10z"/>
<path d="M2225 2731 c-52 -31 -68 -58 -72 -114 -7 -90 49 -151 137 -151 55 0
92 21 120 67 26 41 26 112 1 153 -36 59 -128 81 -186 45z"/>
<path d="M765 2666 c-84 -37 -117 -133 -75 -215 53 -105 208 -110 270 -9 27
45 27 120 -1 165 -39 62 -126 89 -194 59z"/>
<path d="M1485 2205 c-297 -173 -546 -317 -554 -322 -11 -7 -8 -16 13 -47 14
-21 26 -42 26 -46 0 -5 254 139 564 318 l563 325 -26 43 c-14 24 -30 43 -36
43 -5 -1 -253 -142 -550 -314z"/>
<path d="M2967 2146 c-49 -18 -64 -32 -88 -77 -39 -78 -9 -166 71 -206 55 -28
82 -29 136 -2 65 31 90 82 86 171 -3 38 -65 105 -110 118 -46 12 -48 12 -95
-4z"/>
<path d="M2164 2060 c-104 -52 -112 -201 -14 -267 43 -30 121 -31 168 -3 98
60 95 211 -6 268 -49 27 -95 28 -148 2z"/>
<path d="M3674 1900 c-35 -14 -82 -76 -89 -119 -8 -50 24 -123 68 -155 42 -31
131 -29 176 3 124 89 62 283 -91 280 -24 0 -52 -4 -64 -9z"/>
<path d="M660 1828 c-102 -52 -106 -188 -8 -248 86 -52 194 2 214 107 10 51
-27 117 -80 142 -54 27 -71 26 -126 -1z"/>
<path d="M1880 1579 c-59 -24 -100 -85 -100 -149 0 -76 56 -142 130 -155 32
-5 50 -2 87 17 67 33 88 66 88 138 0 71 -21 105 -85 138 -47 24 -80 27 -120
11z"/>
<path d="M2662 1480 c-101 -62 -96 -217 9 -270 102 -52 216 12 226 127 10 122
-130 207 -235 143z"/>
<path d="M1157 1396 c-48 -18 -76 -42 -93 -83 -21 -49 -17 -105 9 -143 37 -55
72 -75 132 -75 60 0 95 19 133 76 20 28 23 43 20 87 -9 105 -106 172 -201 138z"/>
<path d="M3192 1200 c-98 -60 -96 -210 4 -267 110 -63 244 22 232 147 -6 57
-35 102 -82 124 -47 22 -114 20 -154 -4z"/>
</g>
</svg>
